<svg xmlns="http://www.w3.org/2000/svg" xmlns:xlink="http://www.w3.org/1999/xlink" width="40" zoomAndPan="magnify" viewBox="0 0 30 30.000001" height="40" preserveAspectRatio="xMidYMid meet" version="1.0"><defs><clipPath id="8fb675eef6"><path d="M 1.933594 1.453125 L 28.066406 1.453125 L 28.066406 27.582031 L 1.933594 27.582031 Z M 1.933594 1.453125 " clip-rule="nonzero"/></clipPath><clipPath id="b9e54df3b8"><path d="M 15 1.453125 C 7.785156 1.453125 1.933594 7.300781 1.933594 14.515625 C 1.933594 21.730469 7.785156 27.582031 15 27.582031 C 22.214844 27.582031 28.066406 21.730469 28.066406 14.515625 C 28.066406 7.300781 22.214844 1.453125 15 1.453125 Z M 15 1.453125 " clip-rule="nonzero"/></clipPath><clipPath id="4c144b8cb9"><path d="M 0.933594 0.453125 L 27.066406 0.453125 L 27.066406 26.582031 L 0.933594 26.582031 Z M 0.933594 0.453125 " clip-rule="nonzero"/></clipPath><clipPath id="1081a06690"><path d="M 14 0.453125 C 6.785156 0.453125 0.933594 6.300781 0.933594 13.515625 C 0.933594 20.730469 6.785156 26.582031 14 26.582031 C 21.214844 26.582031 27.066406 20.730469 27.066406 13.515625 C 27.066406 6.300781 21.214844 0.453125 14 0.453125 Z M 14 0.453125 " clip-rule="nonzero"/></clipPath><clipPath id="4940773f37"><rect x="0" width="28" y="0" height="27"/></clipPath></defs><g clip-path="url(#8fb675eef6)"><g clip-path="url(#b9e54df3b8)"><g transform="matrix(1, 0, 0, 1, 1, 1)"><g clip-path="url(#4940773f37)"><g clip-path="url(#4c144b8cb9)"><g clip-path="url(#1081a06690)"><path fill="#e11d48" d="M 0.933594 0.453125 L 27.066406 0.453125 L 27.066406 26.582031 L 0.933594 26.582031 Z M 0.933594 0.453125 " fill-opacity="1" fill-rule="nonzero"/></g></g></g></g></g></g></svg>